<?xml version="1.0" encoding="utf-8"?>
<!-- Generator: Adobe Illustrator 22.0.0, SVG Export Plug-In . SVG Version: 6.00 Build 0)  -->
<svg version="1.1" id="punchy-logo" xmlns="http://www.w3.org/2000/svg" xmlns:xlink="http://www.w3.org/1999/xlink" x="0px"
	 y="0px" width="118px" height="60px" viewBox="0 0 118 60" style="enable-background:new 0 0 118 60;" xml:space="preserve">
<style type="text/css">
	.st0{fill:#FFFFFF;}
</style>
<path class="st0" d="M25.4,23.8c0.2-0.5,0.7-0.8,1.2-1.5c0.2-0.8,0.4-2,0.7-3.2c-0.2-0.4-0.5-0.7-0.5-1.1c-0.6-2-1.9-3.4-3.5-4.6
	c-0.4-0.2-0.8-0.7-1.1-0.8c-1.5-0.4-2.9-0.8-4.5-0.7c-1.6,0.1-3.1,0.4-4.6,0.8c-1.6,0.5-3.4,0.6-4.6,2c-0.1,0.1-0.4,0-0.5,0.1
	c-0.3,0.1-0.7,0.2-0.9,0.5c-0.5,0.7-1.3,1.1-2,1.6c-0.7,0.4-1.2,1-1.7,1.6c-0.5,0.6-1.2,1.1-1.8,1.8c-0.2,0.2,0.1,0.9-0.5,1
	c0,0,0,0.5,0,0.7c-0.1,0.3-0.1,0.6-0.2,0.8c0.2,0.2,0.4,0.4,0.7,0.8c-0.4-0.2-0.7-0.2-1.2-0.4c0.7,0.8-0.1,0.9-0.1,1.3
	c0.5,0.3-0.1,1.3,0.7,1.6c0.3-0.4,0.6-0.8,0.9-1c0.7-0.4,1.1-0.8,1.4-1.4c0.2-0.4,0.5-0.6,0.8-0.8c1.6-0.9,2.5-2.7,4.3-3.3
	c0.7-0.9,1.7-0.8,2.8-1.5c-1.1,2.2-2,4-2.8,6.1c-1.4,3.3-2.6,6.7-3.7,10.2c-0.8,2.6-1.3,5.3-1,8.1c0.2,1.2,0.4,2.5,1.6,3.4
	C5.4,45.9,5.8,46,6.1,46c0.3-0.8-0.2-1.4-0.2-2.1c0.1-0.8,0.4-1.6,0.5-2.4c0.2-1.1,0.8-2,1.1-3.1C7.7,37,8.2,35.9,9,34.9
	c0.8,0,1.6,0,2.3-0.1c0.4,0,0.7-0.1,1-0.2c2.3-1,4.4-2.2,6.3-3.6c0.6-0.4,1.5-0.5,1.7-1.4c0-0.1,0.1-0.2,0.2-0.2
	c1-0.2,1.6-1,1.9-1.9c0.2-0.2,0.5-0.4,0.7-0.6c0.3-0.3,0.5-0.5,0.8-0.7c-0.1-0.2-0.2-0.5-0.3-0.7C24.5,25,25.1,24.6,25.4,23.8z
	 M19.4,24.8c0-0.1,0-0.3,0-0.5c0,0,0.1,0,0.1,0c0,0.2,0.1,0.3,0.1,0.4C19.5,24.8,19.5,24.8,19.4,24.8z M23.2,18.7
	c-0.4,0.5-0.6,1.1-1,1.6c-1.2,1.6-2.3,3.1-3.9,4.4c-0.2,0.2-0.2,0.5-0.3,0.8c-0.1,0.2-0.2,0.4-0.4,0.6l0.1-0.1
	c-0.1,0.2-0.1,0.3-0.1,0.3c-1,0-1.7,0.5-2.4,1c-0.5,0.4-1.1,0.7-1.7,0.9c-0.4,0.1-0.8,0.2-1,0.6c-0.2,0.3-0.8,0.4-1.6,0.7
	c1-1.8,1-3.5,2-4.9c0-0.1,0-0.1,0-0.2c0.2-1.7,1.4-3.2,1.6-4.9c0-0.2,0.1-0.4,0.3-0.5c0.5-0.5,0.4-1,0.1-1.7
	c0.2-0.4,0.5-0.7,1.2-0.7c1.3-0.2,2.6-0.4,3.9-0.8c0.5-0.1,0.8-0.1,1.2,0.1c0.2,0.1,0.5,0.3,0.8,0.4c0.5,0,1-0.1,1.2,0.5
	C23.6,17.4,23.6,18.1,23.2,18.7z M115.4,30.3c-2.8,1.1-5.3,2.8-7.8,4.4c-0.1-0.2-0.1-0.2-0.1-0.3c0.4-1.9,0.8-3.8,1.3-5.7
	c0.1-0.7,0.5-1.4,0.2-2c-0.2-1-0.1-2-0.2-2.9c0-0.4-0.1-0.7-0.1-1c-1.1-0.8-2.1-1.6-3.2-0.8c-0.5,1,0,1.9-0.3,2.8
	c-0.1,0.7-0.1,1.4-0.4,2.2c-0.3,1.5-0.7,2.9-1.1,4.3c-0.7,1.9-1.9,3.4-3.4,4.7c-0.5,0.5-1.1,0.9-2,0.7c-0.7-0.9-0.6-1.9-0.4-2.9
	c0.5-2,0.8-4.3,1.9-6.1c-0.6-1.3-0.6-1.3-1.9-1.6c-1,0.1-1.4,0.7-1.6,1.4c-0.5,1.8-1.1,3.6-1,5.6c-0.1,0-0.1,0-0.2-0.1
	c-0.5,0.7-1.1,1.4-1.6,2c-1.3,1.5-2.3,3.1-4.1,4.2c-0.7,0.2-1.4,0.2-1.9-0.7c-0.8-1.3-1.3-2.6-0.8-4.1c0.3-0.7,0.5-1.3,0.4-2
	c0-1.4,0.3-2.9,0.6-4.3c0.2-0.5,0.1-1,0.1-1.4c-0.1-0.2-0.2-0.5-0.4-0.7c-0.8-0.7-2-0.6-2.9,0.1c-1.6,1.1-2.8,2.5-4.1,4
	c-0.8,1.1-1.7,2.3-2.8,3.6c0.1-1.6,0.7-3,1.3-4.3c0.5-1.2,0.5-2.5,1.3-3.6c0.3-0.5,0.2-1.4,0.7-1.9c0.5-0.6,0.1-1.4,0.5-2
	c0.4-0.4,0.4-0.9,0.7-1.6c-0.1-0.5,0.1-1.3,0.5-2c0.4-0.7,0.3-1.6,0.9-1.9c0.1-0.6,0.1-0.9,0.2-1.1c0.5-0.5,0.7-1,0.8-1.6
	c0.3-1.3,0.5-2.6,1.2-3.8c0.2-0.5,0.5-1,0.7-1.4c-0.7-0.8-1.5-1.1-2.5-1.4c-1.1,1.8-1.6,3.7-2.5,5.5c-0.9,1.8-1.7,3.7-2.7,5.5
	c0.1,0.1,0.2,0.3,0.2,0.5c-0.3,0.2-0.5,0.4-0.8,0.5C78,19.3,78,20,77.7,20.4c-0.6,0.8-0.7,1.9-0.7,2.8c-0.5,0.8-0.8,1.6-1.4,2.2
	c-0.4,0.4-0.2,0.8-0.4,1.2c-0.1,0.4-0.2,0.8-0.3,1.3c-0.1,0.5-0.3,1-0.5,1.6c-0.1,0.3-0.1,0.7-0.2,1.1c-0.4,0.2-0.9,0.4-1.2,0.7
	C72,32,71.1,33,70.1,34c-1,1.1-1.9,2.3-2.8,3.4c-0.3,0.3-0.7,0.6-0.9,0.9c-1.1,0.8-2.2,0.5-2.8-0.6c-0.9-1.6-1.2-3.4-0.8-5.2
	c0.4-1.8,1.3-3.4,2.8-4.6c0.4-0.4,0.8-0.5,1.4-0.9c-0.3,1-0.5,1.9-0.7,2.7c1.3,0.4,2.2-0.1,2.7-1.1c0.5-1.1,0.2-2.3-0.8-2.8
	c-1.6-0.9-3.5-0.5-4.7,1c-1.3,1.5-2.2,3.2-3.3,5c-0.3,0.4-0.5,0.9-0.6,1.4c-0.6,0.6-1.1,1.3-1.8,1.7c-0.3,0-0.5,0-0.8,0
	c-0.7,0-1.4-0.2-1.8-0.8c-0.4-0.7-0.7-1.4-1-2.1c0.5-1,0.2-2,0.4-2.9c-0.3-0.4-0.5-0.8-0.8-1.2c-1.5-0.6-2.6-0.2-3.6,0.9
	c-1,1.1-2.2,2.2-3.2,3.3c-0.5,0.5-0.9,1-1.3,1.4c0-0.2,0-0.4,0.1-0.5c0.6-1.1,0.9-2.3,0.8-3.5c0-0.5,0.2-1,0.4-1.4
	c0.1-0.4,0.2-0.7,0.4-0.8c-0.9-1.1-1.6-1.4-2.8-1.6c-0.4,0.8-1,1.6-1.3,2.3c-0.4,0.8-0.7,1.7-1,2.5c0,0,0,0,0,0
	c-0.4,0.2-0.8,0.6-1.1,1c-0.7,1-1.4,2.1-2,3.1c-0.8,1.1-1.7,2.2-3.1,2.5c-0.4-0.6-0.6-1.1-0.2-1.7c0.2-0.4,0-0.9-0.1-1.4
	c0-0.2-0.1-0.4-0.1-0.7c0.2-1.1,0.5-2.1,0.8-3.2c0.1-0.5,0.4-0.9,0.4-1.4c0-1.7,0.9-3.2,1.6-4.9c-0.4-0.3-0.8-0.8-1.3-1
	c-0.8-0.1-1.8-0.2-2.4,0.3c-0.8,2.3-1.2,4.6-2.4,6.6c-1.6,2.6-3.7,4.7-6.1,6.8c0.2-1.1,0.4-2,0.6-2.8c0.3-1,0.8-1.9,0.8-2.8
	c0.2-1.5,1.1-2.6,2.1-3.5c0.1-0.1,0.2-0.2,0.5-0.6c-0.7-0.3-1.2-0.5-1.7-0.8c-0.6-0.1-1.1,0-1.5,0.7c-0.2,0.2-0.4,0.6-0.5,1
	c-0.5,1.4-1,2.9-1.4,4.4c-0.3,1.2-0.6,2.3-0.5,3.5c0.1,1.7,1.7,2.5,3,1.5c0.5-0.2,0.8-0.5,1.2-1c0.7-1,1.6-2,2.5-2.9
	c0.1-0.1,0.3-0.1,0.5-0.3c0.3,0.8,0.1,1.6,0.1,2.3c0.2,1.8,0.8,3.2,2.8,4c0.8,0.2,1.5,0.1,2.2,0.4c0.7,0.1,1.1-0.1,1.4-0.6
	c0.4-0.5,0.7-1,1.1-1.4c0.6-0.6,1-1.4,1.4-2.1c0.1,0.7,0.4,1.4,0.8,2c0.1,0.1,0.2,0.2,0.4,0.3c0.4-0.2,0.7-0.4,1.1-0.6
	c0.4,0.2,0.7,0.3,1.2,0.4c-0.4,0.2-0.7,0.2-0.9,0.3c0.4,1,1.4,0.8,2,1c0.4-0.4,1-0.8,1.3-1.3c0.4-0.5,0.5-1.1,0.8-1.7
	c0.1-0.2,0.1-0.3,0.2-0.4c1.3-1.4,2.5-2.7,3.8-4.2c0.2,0.5,0.3,0.8,0.5,1.3c0.7,1.7,1.7,3,3.4,3.7c0.9,0.4,1.7,0.4,2.5-0.2
	c0.2-0.3,0.5-0.5,0.8-0.7c0.2-0.1,0.5-0.2,0.7-0.3c0,0.8,0,1.5,0.2,2.3c0.4,2.3,3.2,3.7,5.5,3.1C66,40.2,67.2,40,68,39
	c0.1-0.1,0.3-0.1,0.4-0.1c0.5,0.1,0.8-0.2,1.1-0.5c0.4-0.5,0.7-1.2,1.1-1.3c1-0.4,1.5-1.2,1.9-2.1c0.2-0.2,0.5-0.4,0.7-0.7
	c0,0,0,0,0,0c-0.1,0.3-0.1,0.6-0.2,0.9c-0.3,1.1-0.2,2.5-0.5,3.7c-0.3,1.1,0,2.3,0.6,3.4c0.4,1,1.4,0.8,2,1.3c0.1,0,0.2,0,0.4,0
	c0.8-1.3,1.9-2.3,2.3-3.8c0.2-0.9,0.9-1.7,1.2-2.6c0.8-2.5,2.4-4.7,3.8-6.9c0.1-0.1,0.4-0.1,0.7-0.2c-0.2,0.7-0.4,1.1-0.5,1.6
	c-0.2,0.8-0.7,1.7-0.5,2.6c0.3,1,0.5,2,0.9,2.9c0.8,2,2.3,3.1,4.4,3.4c0.7,0.1,1.5,0.2,2.2,0c0.7-0.4,1.5-1,2.2-1.4
	c1.4-1.2,2.2-2.9,3.2-4.4c0.1,0.5,0.3,0.9,0.5,1.4c0.7,1.1,1.5,1.5,2.7,1.6c1.3,0.1,2.6-0.2,3.5-1.3c0.1,2.6-0.2,3.3-1.8,5
	c-0.4,0.5-0.9,0.9-1.3,1.4c-0.3,0.2-0.5,0.5-0.9,1c0.6-0.1,0.9-0.1,1.3-0.1c-0.2,0.6-0.5,1-1.1,1.1c-0.5,0.1-0.6,0.3-0.7,0.9
	c-0.2,0.6-0.9,1.1-1.6,1.6c-0.5,0.3-0.7,0.6-1,1.1c-0.7,1.2-1.4,2.4-2,3.7c-1,1.6-1.9,3.2-2.3,5.1c0.5,0.3,1,0.7,1.4,1.1
	c1,1,1.9,1.3,3.4,1c0.7,0.5,1.2-0.2,1.8-0.3c1.1-0.1,1.8-0.8,2.4-1.6c0.2-0.3,0.5-0.5,0.7-0.8c0.8-1.1,1.6-2.3,2.4-3.5
	c0.4-0.5,0.5-1.1,0.8-1.7c0.4-1.4,0.9-2.8,1.3-4.1c0.1-0.3,0.2-0.5,0.2-0.9c0.3-1.4,0.5-2.9,0.8-4.4c0.1-0.6,0.3-1.1,0.4-1.7
	c0.1-0.8,0.5-1.4,1.1-1.8c1.9-1.6,3.8-3.1,5.8-4.4c1.4-0.8,2.8-1.7,4.6-2c0.1-0.2,0.2-0.4,0.3-0.8C117.3,30.9,116.3,30.6,115.4,30.3
	z M77.8,21.4C77.8,21.3,77.9,21.4,77.8,21.4c0.1,0.1,0.1,0.1,0.1,0.1c-0.1-0.1-0.2-0.1-0.2-0.1C77.7,21.4,77.7,21.4,77.8,21.4z
	 M45.2,33.9c0,0-0.1-0.1-0.1-0.1c0,0,0.1,0,0.2,0C45.3,33.8,45.3,33.9,45.2,33.9z M98.3,53.2c-0.5,0.8-1,1.5-1.5,2.2
	c-0.9,1.3-1,1.3-2.8,1.9c0-1.5-0.3-2.9,0.1-4.3c0.4-1.2,0.5-2.6,1.7-3.4c0.9-0.6,1.4-1.6,2.5-2c0.4-0.1,0.6-0.5,0.9-0.9
	c0.5-0.5,0.9-1,1.7-1.9C100.3,48.1,99.7,50.8,98.3,53.2z"/>
</svg>
